<svg xmlns="http://www.w3.org/2000/svg" xmlns:xlink="http://www.w3.org/1999/xlink" width="1024" zoomAndPan="magnify" viewBox="0 0 768 767.999994" height="1024" preserveAspectRatio="xMidYMid meet" version="1.0"><defs><clipPath id="0c26975000"><path d="M 15.054688 147.285156 L 753 147.285156 L 753 620.535156 L 15.054688 620.535156 Z M 15.054688 147.285156 " clip-rule="nonzero"/></clipPath><clipPath id="7b40d428ab"><path d="M 231.585938 387 L 478 387 L 478 576.578125 L 231.585938 576.578125 Z M 231.585938 387 " clip-rule="nonzero"/></clipPath><clipPath id="5094eb89a3"><path d="M 392 236.828125 L 562.335938 236.828125 L 562.335938 576.578125 L 392 576.578125 Z M 392 236.828125 " clip-rule="nonzero"/></clipPath></defs><g clip-path="url(#0c26975000)"><path fill="#ff7828" d="M 627.527344 620.519531 L 140.578125 620.519531 C 71.546875 620.519531 15.375 564.378906 15.375 495.382812 C 15.375 431.28125 63.863281 378.277344 126.097656 371.070312 C 131.199219 278.359375 208.28125 204.503906 302.296875 204.503906 C 312.367188 204.503906 322.660156 205.429688 332.984375 207.273438 C 371.3125 169.054688 423.664062 147.285156 477.917969 147.285156 C 532.703125 147.285156 584.203125 168.613281 622.929688 207.316406 C 661.667969 246.039062 682.992188 297.507812 682.992188 352.265625 C 682.992188 362.300781 682.253906 372.339844 680.796875 382.257812 C 724.285156 402.714844 752.730469 446.726562 752.730469 495.382812 C 752.730469 564.378906 696.558594 620.519531 627.527344 620.519531 Z M 140.164062 399.722656 C 87.578125 399.945312 44.871094 442.777344 44.871094 495.382812 C 44.871094 548.132812 87.796875 591.039062 140.578125 591.039062 L 627.527344 591.039062 C 680.308594 591.039062 723.238281 548.132812 723.238281 495.382812 C 723.238281 454.96875 697.546875 418.753906 659.292969 405.265625 C 652.320312 402.804688 648.25 395.582031 649.769531 388.347656 C 652.246094 376.523438 653.5 364.378906 653.5 352.265625 C 653.5 305.394531 635.242188 261.324219 602.074219 228.171875 C 568.910156 195.023438 524.816406 176.761719 477.917969 176.761719 C 429.078125 176.761719 382.019531 197.382812 348.835938 233.316406 C 345.269531 237.179688 339.902344 238.859375 334.753906 237.695312 C 323.796875 235.21875 312.882812 233.980469 302.296875 233.980469 C 221.261719 233.980469 155.324219 299.878906 155.324219 380.871094 C 155.324219 381.285156 155.371094 381.683594 155.398438 382.097656 C 155.457031 382.949219 155.515625 383.820312 155.53125 384.691406 C 155.621094 388.65625 154.101562 392.488281 151.328125 395.316406 C 148.558594 398.148438 144.753906 399.738281 140.785156 399.738281 C 140.59375 399.738281 140.386719 399.738281 140.164062 399.722656 Z M 140.164062 399.722656 " fill-opacity="1" fill-rule="nonzero"/></g><path fill="#ffd200" d="M 354.457031 265.140625 C 302.292969 265.140625 260.007812 307.390625 260.007812 359.515625 L 260.007812 453.890625 L 297.785156 453.890625 L 297.785156 359.515625 C 297.785156 328.246094 323.167969 302.890625 354.457031 302.890625 C 385.75 302.890625 411.128906 328.246094 411.128906 359.515625 L 411.128906 453.890625 L 448.910156 453.890625 L 448.910156 359.515625 C 448.910156 307.390625 406.625 265.140625 354.457031 265.140625 Z M 354.457031 265.140625 " fill-opacity="1" fill-rule="nonzero"/><g clip-path="url(#7b40d428ab)"><path fill="#ffac33" d="M 477.246094 538.828125 C 477.246094 559.675781 460.328125 576.578125 439.464844 576.578125 L 269.453125 576.578125 C 248.585938 576.578125 231.671875 559.675781 231.671875 538.828125 L 231.671875 425.578125 C 231.671875 404.730469 248.585938 387.828125 269.453125 387.828125 L 439.464844 387.828125 C 460.328125 387.828125 477.246094 404.730469 477.246094 425.578125 Z M 477.246094 538.828125 " fill-opacity="1" fill-rule="nonzero"/></g><g clip-path="url(#5094eb89a3)"><path fill="#ff7828" d="M 562.25 321.765625 C 562.25 274.851562 524.195312 236.828125 477.246094 236.828125 C 430.292969 236.828125 392.238281 274.851562 392.238281 321.765625 C 392.238281 358.730469 415.917969 390.089844 448.910156 401.765625 L 448.910156 552.984375 C 448.910156 566.015625 459.480469 576.578125 472.523438 576.578125 C 483.980469 576.578125 493.519531 568.421875 495.664062 557.609375 C 495.832031 557.617188 495.964844 557.703125 496.136719 557.703125 C 501.359375 557.703125 505.582031 553.484375 505.582031 548.265625 L 505.582031 538.828125 C 505.582031 533.609375 501.359375 529.390625 496.136719 529.390625 L 496.136719 519.953125 C 501.359375 519.953125 505.582031 515.734375 505.582031 510.515625 L 505.582031 491.640625 C 505.582031 486.421875 501.359375 482.203125 496.136719 482.203125 L 496.136719 460.710938 C 501.765625 457.4375 505.582031 451.425781 505.582031 444.453125 L 505.582031 401.765625 C 538.574219 390.101562 562.25 358.742188 562.25 321.765625 Z M 477.246094 255.703125 C 487.671875 255.703125 496.136719 264.15625 496.136719 274.578125 C 496.136719 284.996094 487.671875 293.453125 477.246094 293.453125 C 466.816406 293.453125 458.355469 284.996094 458.355469 274.578125 C 458.355469 264.15625 466.816406 255.703125 477.246094 255.703125 Z M 477.246094 255.703125 " fill-opacity="1" fill-rule="nonzero"/></g></svg>